<svg xmlns="http://www.w3.org/2000/svg" width="64.762" height="64.762" viewBox="164 164.238 64.762 64.762"><g data-name="Group 3166"><g data-name="authorization"><path d="m165.826 211.46 1.429-1.619a3.24 3.24 0 0 1-1.096-2.428v-37.778a3.242 3.242 0 0 1 3.238-3.238h53.968a3.242 3.242 0 0 1 3.238 3.238v37.778a3.242 3.242 0 0 1-3.238 3.238h-18.35v2.159h18.35a5.403 5.403 0 0 0 5.397-5.397v-37.778a5.403 5.403 0 0 0-5.397-5.397h-53.968a5.403 5.403 0 0 0-5.397 5.397v37.778c0 1.548.665 3.022 1.826 4.047Z" fill="#00458d" fill-rule="evenodd" data-name="Path 40038"/><path d="M169.397 168.556h2.159v2.158h-2.16v-2.158Z" fill="#00458d" fill-rule="evenodd" data-name="Path 40039"/><path d="M173.714 168.556h2.159v2.158h-2.159v-2.158Z" fill="#00458d" fill-rule="evenodd" data-name="Path 40040"/><path d="M178.032 168.556h2.158v2.158h-2.158v-2.158Z" fill="#00458d" fill-rule="evenodd" data-name="Path 40041"/><path d="M169.397 172.873h53.968v2.159h-53.968v-2.159Z" fill="#00458d" fill-rule="evenodd" data-name="Path 40042"/><path d="M215.81 179.35a7.556 7.556 0 1 0 7.555 7.555 7.564 7.564 0 0 0-7.556-7.556Zm0 12.952a5.397 5.397 0 1 1 5.396-5.397 5.403 5.403 0 0 1-5.397 5.397Z" fill="#00458d" fill-rule="evenodd" data-name="Path 40043"/><path d="m218.284 183.983-3.554 3.554-1.395-1.395-1.527 1.526 2.159 2.159a1.08 1.08 0 0 0 1.526 0l4.318-4.318-1.527-1.526Z" fill="#00458d" fill-rule="evenodd" data-name="Path 40044"/><path d="M210.413 196.62h10.793v2.158h-10.793v-2.159Z" fill="#00458d" fill-rule="evenodd" data-name="Path 40045"/><path d="M210.413 200.937h10.793v2.158h-10.793v-2.158Z" fill="#00458d" fill-rule="evenodd" data-name="Path 40046"/><path d="M196.38 179.35a7.556 7.556 0 1 0 7.556 7.555 7.564 7.564 0 0 0-7.555-7.556Zm0 12.952a5.397 5.397 0 1 1 5.398-5.397 5.403 5.403 0 0 1-5.397 5.397Z" fill="#00458d" fill-rule="evenodd" data-name="Path 40047"/><path d="m198.856 183.983-3.554 3.554-1.396-1.395-1.526 1.526 2.158 2.159a1.08 1.08 0 0 0 1.527 0l4.317-4.318-1.526-1.526Z" fill="#00458d" fill-rule="evenodd" data-name="Path 40048"/><path d="M190.984 196.62h10.794v2.158h-10.794v-2.159Z" fill="#00458d" fill-rule="evenodd" data-name="Path 40049"/><path d="M190.984 200.937h10.794v2.158h-10.794v-2.158Z" fill="#00458d" fill-rule="evenodd" data-name="Path 40050"/><path d="M176.952 181.508c1.81 0 3.5.908 4.499 2.417l1.797-1.195a7.555 7.555 0 0 0-13.747 5.433l2.13-.357a5.403 5.403 0 0 1 5.322-6.298Z" fill="#00458d" fill-rule="evenodd" data-name="Path 40051"/><path d="M165.08 229h30.222c.173 0 .344-.042.497-.122 3.304-.504 6.33-2.54 7.747-5.275h5.787c.287 0 .561-.114.763-.316l1.396-1.396 1.395 1.396c.203.202.477.316.764.316h2.158c.287 0 .561-.114.764-.316l1.395-1.396 1.396 1.396c.202.202.477.316.763.316h2.159c.36 0 .697-.18.898-.48l2.158-3.239a1.08 1.08 0 0 0 0-1.197l-2.158-3.238c-.2-.3-.538-.48-.898-.48h-18.74c-1.642-3.166-5.437-5.398-9.324-5.398a9.658 9.658 0 0 0-5.394 1.64l-.738-.294a2.581 2.581 0 0 1-.324-.15 3.987 3.987 0 0 1-1.163-6.214 8.6 8.6 0 0 0 2.222-5.775v-4.005c0-3.446-1.949-6.627-4.962-8.102a8.193 8.193 0 0 0-3.4-.845 8.472 8.472 0 0 0-3.28.54 8.197 8.197 0 0 0-2.45 1.41 8.662 8.662 0 0 0-3.177 6.684v4.318a8.658 8.658 0 0 0 2.222 5.776 3.987 3.987 0 0 1 .33 4.894l-.014.02a3.657 3.657 0 0 1-1.507 1.312 2.58 2.58 0 0 1-.297.137l-.013.005-4.893 1.955a5.387 5.387 0 0 0-3.384 5.016v10.028c0 .596.483 1.079 1.08 1.079Zm29.142-17.27c3.262 0 6.544 2.03 7.635 4.722.164.408.56.675 1 .675h18.851l1.439 2.159-1.439 2.158h-1.134l-1.843-1.842a1.08 1.08 0 0 0-1.526 0l-1.843 1.842h-1.264l-1.843-1.842a1.08 1.08 0 0 0-1.526 0l-1.843 1.842h-6.029c-.44 0-.836.267-1 .675-1.091 2.693-4.373 4.722-7.635 4.722a7.556 7.556 0 1 1 0-15.11Zm-28.063 6.163a3.236 3.236 0 0 1 2.03-3.013l4.883-1.95c.179-.07.353-.15.521-.24a5.869 5.869 0 0 0 2.303-2.033 6.145 6.145 0 0 0-.516-7.55 6.317 6.317 0 0 1-1.033-1.548l-.006-.013a6.304 6.304 0 0 1-.627-2.768v-4.318a6.504 6.504 0 0 1 2.402-5.025 6.06 6.06 0 0 1 1.823-1.046 6.32 6.32 0 0 1 2.455-.406 6.056 6.056 0 0 1 2.516.625c2.282 1.117 3.757 3.537 3.757 6.165v4.005a6.445 6.445 0 0 1-1.663 4.326 6.145 6.145 0 0 0 1.997 9.692c-3.585 3.978-3.266 10.11.712 13.694.134.12.272.238.413.351h-21.967v-8.948Z" fill="#00458d" fill-rule="evenodd" data-name="Path 40052"/><path d="M192.063 222.524a3.238 3.238 0 1 0 0-6.476 3.238 3.238 0 0 0 0 6.476Zm0-4.318a1.08 1.08 0 1 1 0 2.16 1.08 1.08 0 0 1 0-2.16Z" fill="#00458d" fill-rule="evenodd" data-name="Path 40053"/></g></g></svg>