<svg xmlns="http://www.w3.org/2000/svg" width="15.477" height="15.413" viewBox="0 1.245 15.477 15.413"><path d="M15.388 8.739 7.952 1.334a.303.303 0 0 0-.427 0L.089 8.739a.3.3 0 0 0 0 .426l7.436 7.405c.118.118.31.118.427 0l7.436-7.405a.3.3 0 0 0 0-.426Zm-2.687.34c.538.833-.76.957-.586 2.493l-2.079 2.07c-.084-.776.39-1.421.701-1.94.8-1.337.816-2.19.829-2.877.007-.404.014-.751.178-1.136.166-.388.446-.68.74-.99l.509.506c-.517.544-.686 1.205-.292 1.874ZM7.738 1.973l.97.966c-.371.317-.818.51-1.357.586-.322.047-.684-.048-1-.17l1.387-1.382ZM5.565 13.767l-.84-.836c.589-.347 1.171-.404 1.447-1.399a.302.302 0 0 0-.586-.148c-.18.759-.78.73-1.295 1.114l-.793-.788c.801-.424 1.8-.705 2.195-1.583.066-.146.131-.301.194-.45.28-.67.571-1.363 1.096-1.74.227-.163.48-.154.594-.05.128.115.017.339-.036.43-.625 1.061-.705 2.443-.705 3.528.016 1.18-.682 1.174-1.271 1.922Zm2.173 2.164-1.743-1.736c.188-.237.383-.398.573-.555.448-.373.872-.724.872-1.796 0-1.01.07-2.288.622-3.224.642-1.122-.578-1.795-1.432-1.172-.802.581-1.108 1.583-1.489 2.432-.315.702-1.397.972-2.088 1.385L1.671 9.89c.71-.386 1.707-.648 2.233-1.185.226-.233.433-.525.627-.804a.3.3 0 0 0-.077-.419.303.303 0 0 0-.42.077c-.18.258-.37.527-.564.727-.505.484-1.574.75-2.244 1.16L.73 8.951 5.89 3.814c.364.16.828.324 1.293.324a3.182 3.182 0 0 0 1.955-.774l.854.85c-1.209.631-1.95.122-3.214.723a5.234 5.234 0 0 0-.887.52.3.3 0 0 0-.066.42c.1.135.29.163.423.065 1.71-1.262 2.501-.308 4.188-1.286l1.622 1.616c-.324.34-.657.685-.869 1.18-.21.491-.218.913-.227 1.36-.012.647-.026 1.381-.743 2.58-.395.656-1.074 1.593-.68 2.746l-1.8 1.793Zm5.015-4.994c.068-.236.197-.414.33-.598 1.068-1.354-.671-1.606.338-2.708l1.326 1.32-1.994 1.986ZM5.386 6.635c-.015.399-.59.398-.605 0a.302.302 0 0 1 .605 0Z" fill="#00458d" fill-rule="evenodd" data-name="Path 4"/></svg>