<svg xmlns="http://www.w3.org/2000/svg" width="47.111" height="47.111" viewBox="1 1 47.111 47.111"><path d="M24.555 1C11.546 1 1 11.546 1 24.555c0 13.01 10.546 23.556 23.555 23.556 13.01 0 23.556-10.546 23.556-23.556C48.11 11.546 37.565 1 24.555 1Zm1.01 14.47a8.086 8.086 0 0 1 8.076 8.076h-2.019a6.063 6.063 0 0 0-6.057-6.057v-2.02Zm6.54 23.219c-.06 0-6.124-.104-13.92-7.763-7.66-7.793-7.763-13.86-7.763-13.92 0-.756 4.711-6.584 5.752-6.584.362 0 .643.245.95.613.742.882 4.019 6.055 3.868 6.917-.072.405-.416.713-1.402 1.54-.486.383-.94.803-1.36 1.257.2.83.5 1.635.889 2.396a14.816 14.816 0 0 0 6.85 6.847c.76.39 1.565.688 2.396.889.454-.42.874-.874 1.256-1.36.828-.986 1.136-1.33 1.54-1.402.863-.157 6.036 3.126 6.918 3.867.368.314.613.59.613.95-.003 1.042-5.831 5.753-6.586 5.753Zm4.564-15.143c-.007-6.13-4.974-11.097-11.104-11.104v-2.02c7.244.009 13.115 5.88 13.124 13.124h-2.02Z" fill="#14c567" fill-rule="evenodd" data-name="Path 1"/></svg>